<svg version="1.2" xmlns="http://www.w3.org/2000/svg" viewBox="0 0 850.606018518519 851" width="512" height="512">
	<title>logo cryptonic illus cercle + texte</title>
	<style>
        
		.s0 {
        fill: none;
        stroke: #fff;
        stroke-width: 2;
        stroke-linecap: round;
        stroke-linejoin: round;
        stroke-dasharray: 2000;
        stroke-dashoffset: 2000;
        animation:
        drawLogo 5s ease-in-out forwards,
        fillLogo 3s ease-in-out forwards 5s,
        breathe 4s ease-in-out infinite 9s;
        }

        .logo-title .s0 {
        fill: none;
        stroke: #fff;
        stroke-width: 2;
        stroke-dasharray: 2000;
        stroke-dashoffset: 2000;
        animation:
        drawLogo 5s ease-in-out forwards,
        fillLogoText 3s ease-in-out forwards 5s,
        breatheText 4s ease-in-out infinite 9s;
        }

        @keyframes drawLogo {
        to {
        stroke-dashoffset: 0;
        }
        }

        @keyframes fillLogo {
        to {
        fill: #fff;
        fill-opacity: 1;
        }
        }

        @keyframes fillLogoText {
        to {
        fill: #fff;
        fill-opacity: 1;
        }
        }

        @keyframes breathe {
        0%, 100% {
        stroke-width: 2;
        fill-opacity: 1;
        }
        50% {
        stroke-width: 4;
        fill-opacity: 0.5;
        }
        }

        @keyframes breatheText {
        0%, 100% {
        fill-opacity: 1;
        stroke-opacity: 1;
        }
        50% {
        fill-opacity: 0.5;
        stroke-opacity: 0.5;
        }
        }

	</style>
	<g id="&lt;Group&gt;">
		<g id="&lt;Group&gt;">
			<g id="&lt;Group&gt;">
				<path id="&lt;Compound Path&gt;" class="s0" d="m208.9 701.5l-23.9-33.4c-3.2 0.5-6.9 0.8-10.6 0.8h-28.9v32.6h-4.8v-96.9h33.7c24.3 0 38.5 11.9 38.5 32.1 0 15.6-8.4 26.1-23.2 30.3l24.8 34.5zm-34.3-36.8c21.9 0 33.7-10.3 33.7-28 0-17.9-11.8-27.9-33.7-27.9h-29.2v55.9z"/>
				<path id="&lt;Compound Path&gt;" class="s0" d="m266.1 668.3v33.2h-4.8v-33.2l-39.2-63.7h5.3l36.6 59.3 36.3-59.3h5z"/>
				<path id="&lt;Compound Path&gt;" class="s0" d="m393.5 636.7c0 20.3-14.5 32.2-38.4 32.2h-29v32.6h-4.7v-96.9h33.7c23.9 0 38.4 11.9 38.4 32.1zm-4.5 0c0-17.9-11.8-27.9-33.7-27.9h-29.2v55.9h29.2c21.9 0 33.7-10.3 33.7-28z"/>
				<path id="&lt;Compound Path&gt;" class="s0" d="m433.5 608.8h-35.5v-4.2h75.8v4.2h-35.5v92.7h-4.8z"/>
				<path id="&lt;Compound Path&gt;" class="s0" d="m678.1 604.6v96.9h-3.9l-68.7-88.5v88.5h-4.8v-96.9h4l68.7 88.2v-88.2z"/>
				<path id="&lt;Compound Path&gt;" fill-rule="evenodd" class="s0" d="m718.4 604.6v96.9h-4.7v-96.9z"/>
				<path id="&lt;Compound Path&gt;" class="s0" d="m744 653.1c0-28.2 21.3-49 49.7-49 13.2 0 25.3 4.2 33.7 12.6l-2.9 3.2c-8.4-8.4-18.9-11.6-30.5-11.6-25.8 0-45.3 19.2-45.3 44.8 0 25.2 19.5 44.5 45.3 44.5 11.6 0 22.1-3.5 30.5-11.6l2.9 2.9c-8.4 8.7-20.5 13.1-33.7 13.1-28.4 0-49.7-21-49.7-48.9z"/>
			</g>
			<g id="&lt;Group&gt;">
				<path id="&lt;Compound Path&gt;" class="s0" d="m561.2 636.5c-14.4-35.6-37.4-70.6-50.3-65.1l-11.8 4.8c-12.6 5.3-4 45.8 10.5 81.3 14.5 35.6 36.9 70.9 49.5 65.6l11.9-4.7c13.1-5.6 5-46.4-9.8-81.9zm-3.4 1.3c17.1 41.3 20 73.7 11.9 77.1-8.2 3.2-28.7-21.8-45.9-63.1-16.8-41.4-19.7-73.8-11.5-77.2 8.1-3.2 28.7 21.9 45.5 63.2zm-60.5-53.7q0.7-3.7 2.8-4.5l5.6-2.1c-0.5 0.8-0.5 2.4-1.1 3.4zm-0.5 10.8c-0.3-3.4-0.3-6 0.3-8.4l7.3-3.2c-0.2 2.7-0.2 5.6-0.2 8.5zm1 9.7c-0.2-2.6-0.5-5.5-0.8-7.9l7.9-3.2q0 4 0.8 7.9zm1.6 9.5c-0.5-2.6-1-5.2-1.6-7.6l7.9-3.2c0.5 2.4 1.1 5.3 1.6 7.7zm2.1 9.4c-0.8-2.6-1.3-5.2-1.8-7.6l7.9-3.2c0.5 2.4 1.3 5 1.5 7.7zm2.9 9.2c-0.7-2.6-1.5-5-2.3-7.4l7.9-3.1c0.5 2.3 1.3 5 2.1 7.3zm2.9 9c-0.8-2.6-1.6-4.7-2.4-7.1l7.4-3.2c0.8 2.4 1.6 5 2.6 7.4zm3.4 8.9c-1-2.6-1.8-5-2.9-7.3l7.7-2.9c0.8 2.1 1.6 4.7 2.6 7.1zm3.7 8.7l-1.3-3.2-1.6-3.7 7.4-3.1 1.5 3.9 1.4 3.2zm3.9 8.7c-1-2.4-2.4-4.8-3.1-6.9l7.3-3.1c1.1 2.3 2.4 4.7 3.2 6.8zm4.2 8.7c-1.3-2.1-2.4-4.5-3.4-6.8l7.3-2.9c1.4 2.3 2.4 4.4 3.5 6.8zm4.4 8.4c-1-2.1-2.3-4.7-3.4-6.8l7.4-2.9c1.3 2.4 2.4 4.5 3.7 6.6zm4.7 8.4c-1.3-2.1-2.6-4.5-3.9-6.6l7.9-3.1c1 2.3 2.6 4.4 3.7 6.5zm5.2 8.2c-1.3-2.1-2.9-4.2-4.2-6.6l7.6-3.1c1.6 2.3 2.9 4.4 4.3 6.5zm6 7.9c-1.6-2.1-3.1-3.9-4.7-6.3l7.6-3.1c1.6 2.3 3.4 4.4 5 6.3zm7.1 7.3c-1.8-1.3-3.7-3.4-5.8-5.7l7.7-3.2c2.1 2.4 3.9 4.2 5.8 5.8zm7.9 2.6q-2.4 1.1-6.4-1.6l7.7-2.9c1.3 0.8 2.6 1.9 3.9 2.4z"/>
				<path id="&lt;Compound Path&gt;" class="s0" d="m514.6 605.1c2.7 12.4 7.4 28 14.2 44.3 6.6 16.3 14 31.1 21.1 41.8 11.3 17.4 15.8 15.8 17.4 15.1 1.6-0.6 5.8-2.4 1.6-23-2.7-12.3-7.7-28.1-14.2-44.4-6.6-16.4-14-31.1-21.1-41.6-11.3-17.7-15.8-15.8-17.4-15.3-1.6 0.8-5.8 2.6-1.6 23.1zm36.9 35.3c15.8 39 17.6 61.6 14.5 63-3.2 1.3-17.7-16.4-33.7-55.1-15.8-38.7-17.7-61.6-14.5-62.9 3.2-1.3 17.6 16.3 33.7 55z"/>
			</g>
			<path id="&lt;Compound Path&gt;" class="s0" d="m71 603.8c-26.9 0-49 22.2-49 49.3 0 26.8 22.1 48.9 49 48.9 27.1 0 49.2-22.1 49.2-48.9 0-27.1-22.1-49.3-49.2-49.3zm0 94c-24.8 0-44.8-20.2-44.8-44.7 0-24.8 20-45.1 44.8-45.1 23.9 0 43.7 19 44.7 43h-43.7v-22.2h-4.2v47.7h4.2v-21.3h43.7c-1 23.7-20.8 42.6-44.7 42.6z"/>
		</g>
		<g id="&lt;Group&gt;">
			<g id="&lt;Group&gt;">
				<path id="&lt;Path&gt;" class="s0" d="m499.9 325.3h-5.3q-0.8 0-0.8 0.8v12.6q0 0.8 0.8 0.8h5.3q0.8 0 0.8-0.8v-12.6q0-0.8-0.8-0.8z"/>
				<path id="&lt;Path&gt;" class="s0" d="m515.9 333.4h-12.9c-0.2 0-0.7 0.6-0.7 0.8v5.3c0 0.5 0.5 0.8 0.7 0.8h12.9c0.3 0 0.8-0.3 0.8-0.8v-5.3c0-0.2-0.5-0.8-0.8-0.8z"/>
				<path id="&lt;Compound Path&gt;" class="s0" d="m424.8 156c-91.8 0-166.6 74.7-166.6 166.6 0 91.9 74.8 166.7 166.6 166.7 91.9 0 166.7-74.8 166.7-166.7 0-91.9-74.8-166.6-166.7-166.6zm6.9 317.5h-14.2c-0.3 0-0.8 0.3-0.8 0.8v1.3c-37.9-1.8-73.2-17.6-100.3-44.8-29-28.9-45.1-67.4-45.1-108.2 0-41 16.1-79.5 45.1-108.4 28.9-29 67.4-45.1 108.4-45.1 34.8 0 68.8 12.1 95.9 33.7 26.6 21.6 45.5 51.6 53.4 84.8v0.3h12.1q0.3 1.6 0.6 2.9h-13.7l-3.4-3.7c-7.7-31.9-26.4-60.6-52.2-81.4-26.6-21-58.7-32.4-92.7-32.4-82.4 0-149.2 66.9-149.2 149.3 0 82.2 66.8 149.1 149.2 149.1 34.5 0 68.5-12.2 95.1-34.3 26.3-21.8 44.5-52.1 51.1-85.5l3.7-3.5h13.1q-0.2 1.4-0.5 2.7h-11.8l-0.3 0.5c-13.2 69.5-72.7 120.6-142.7 124v-1.3q0-0.8-0.8-0.8zm142.4-126.1l-4.2 3.9v0.3c-6.6 33.2-24.5 63.2-50.8 85-26.3 21.9-60 34-94.3 34-81.8 0-148.2-66.3-148.2-148 0-81.9 66.4-148.2 148.2-148.2 33.7 0 65.6 11.1 92.2 32.4 25.5 20.3 44 49 51.6 80.8l4.2 4.2h14q0.2 1.3 0.5 2.9h-5.3v-1.6h-8.1v1.6h-2.1l-7.4-7.6c-7.9-30.3-25.8-57.9-50.6-77.7-25.5-20-56.3-30.8-89-30.8-79.5 0-144 64.5-144 144 0 37.4 14.2 71.4 37.9 97.2l-1 0.8 5.8 5.8 0.8-0.8c26 25.3 61.3 40.8 100.5 40.8 33.2 0 65.6-11.6 91.4-32.7 25.3-20.8 42.9-49.7 49.5-81.8l8.4-8.5h14.3q-0.3 2.1-0.6 4zm-0.5-5l-9 8.9v0.3c-6.5 31.6-23.9 60.6-49.2 81.4-25.3 20.8-57.6 32.3-90.6 32.3-38.7 0-73.9-15.5-99.8-40.5l1.4-1.1-5.8-5.8-1.1 1.1c-23.4-25.5-37.6-59.2-37.6-96.4 0-79 63.9-142.9 142.9-142.9 32.4 0 63 10.5 88.5 30.8 24.5 19.4 42.4 46.8 50 77.1l7.9 8.2h2.7v1.3h8.1v-1.3h5.6q0.2 1.3 0.5 2.6h-17.9l-11.3-11.3c-16.1-60.8-71.1-103.2-134.1-103.2-44.2 0-83.7 20.8-109 53.2l-1.5-1.1-4.8 6.9 1.3 0.7c-15.5 22.4-24.7 49.5-24.7 79 0 76.4 62.1 138.5 138.7 138.5 21.9 0 43.7-5.2 63.2-15.2l0.8 1.3 6.9-4.2-0.6-1.1q9.3-5.3 17.4-11.8c24.2-20.1 41.1-47.7 47.7-78.2l13.4-13.2h15.3q0 1.8-0.3 3.7zm-0.5-4.8l-14 13.7v0.3c-6.3 30.3-23.4 57.9-47.4 77.7q-8.1 6.5-17.1 11.8l-1-1.6-6.9 4.5 0.5 1.1c-19.2 9.7-40.8 15-62.6 15-75.8 0-137.5-61.6-137.5-137.5 0-29.2 9-56.1 24.5-78.4l1.3 0.8 4.5-6.9-0.8-0.5c25-32.1 64.3-52.7 108-52.7 62.6 0 117.4 42.2 133.2 102.7l11.9 12.1h18.4q0.3 1.3 0.3 2.7h-19.8l-15.3-15.3c-6.5-24.5-20-45.8-37.9-62.2l1.3-1.3-6-5.5-1.3 1.3c-23.5-19.2-53-30.3-84.8-30.3-73.5 0-133.5 59.8-133.5 133.5 0 73.5 60 133.3 133.5 133.3 30.5 0 60.3-10.6 84-29.5 23.4-19 39.7-45.3 46.3-74.5l16.6-16.6h17.6q0 1-0.2 2.3zm-1.9-3.4l-17.1 17.1-0.2 0.3c-6.4 29-22.7 55-45.9 73.7-23.4 19.2-52.9 29.5-83.2 29.5-72.9 0-132.4-59.2-132.4-132.2 0-73.2 59.5-132.4 132.4-132.4 31.4 0 60.9 11.1 84 30l-0.8 0.8 6.4 5.5 0.5-0.8c17.6 16.4 31.1 37.4 37.6 61.9l15.8 16.1h20.3q0.3 0.8 0.3 1.8h-32.4l-45.8 45.8-0.3 0.3c-12.4 36.6-46.9 61.3-85.6 61.3q-3.1 0-6.3-0.2v-20.6h5.8q0.8 0 0.8-0.7v-2.9c36.3 0 65.8-29.8 65.8-65.9q0-1.3-0.2-2.6h28.1v8.4h-2.1v-2.3q0-0.8-0.8-0.8h-12.9c-0.2 0-0.7 0.2-0.7 0.8v5.2c0 0.3 0.5 0.8 0.7 0.8h12.9c0.6 0 0.8-0.5 0.8-0.8v-1.8h3.2v-9.5h11.6c1.8 0 3.4-1.6 3.4-3.4 0-1.9-1.6-3.4-3.4-3.4h-0.5v-8.5l17.3-17.1-0.2-0.3c-6.4-21.8-18.5-42.1-35.1-57.9l1.1-1-6.1-5.6-1 1.4q-2.1-1.9-4.2-3.5c-22.7-17.3-49.5-26.3-78-26.3-42.6 0-80.3 20.8-103.7 52.7l-1.6-1.1-4.5 6.9 1.6 1c-12.6 19.8-20 43.5-20 68.7 0 70.6 57.4 128.3 128.2 128.3 29 0 57.7-10 80.3-28.2 22.2-17.9 38-43.2 44.5-70.8l20.1-19.8h20q-0.3 1.1-0.3 2.1zm5.5-7.1v-1h-8.1v1h-0.8l-24.5 24.2v0.3c-6.6 26.1-21.6 49.5-42.7 66.3-21.8 17.4-47.9 26.6-75.8 26.6-33.2 0-63.4-13.4-85.3-35l0.8-0.8-5.8-5.8-0.8 0.6c-19.2-21.4-30.8-49.8-30.8-80.9 0-67.4 54.5-121.9 121.9-121.9 26.9 0 52.1 8.4 73.5 24.5q2.6 2.1 5.2 4.2l-1 1.1 6.3 5.5 0.8-1c14.7 14.4 26.1 32.6 31.9 52.3l-17.2 17.2v8.7h-4.4v-8.2l17.3-17.4v-0.3c-5.8-18.1-16-35-29.7-48.4l1-1.1-6-5.5-1.1 1.1q-2.9-2.9-6.3-5.3c-20.5-15.3-44.7-23.4-70.3-23.4q-3.1 0-6.6 0.2v-1.5h-8.4v2.3l-2.9 0.6c-52.1 7.9-92.9 50-99 102.4v0.2l9.2 9.3c-1 0-1.6 0.7-1.6 1.8 0 0.8 0.6 1.6 1.4 1.8l-9.5 10v0.3c2.3 29.2 15.5 56.6 37.4 76.9 21.8 20 50.3 31.3 80 31.3 53.7 0 100.6-36.3 114-88.2l27.1-27.4h24q-0.3 1.1-0.3 2.4zm-15.2-10l-34.3 34.2-0.2 0.3c-6.1 21.8-19.5 41.3-37.4 55.3q-4.8 3.4-9.8 6.6l-1-1.6-6.9 4.2 0.8 1.3c-14.7 7.4-31 11.3-47.9 11.3q-13 0-26.1-3.1v-0.5-4c6.4 1.8 12.4 2.9 19 3.2v1.8q0 0.8 0.8 0.8h12.9c0.3 0 0.8-0.3 0.8-0.8v-1.8c19.7-1.4 38.2-8.2 54.2-20.3 17.1-12.9 30-31.3 36.1-51.9l37.6-37.6h8.5v1.8h8.1v-1.8h12.9q0.3 1.3 0.3 2.6zm7.6 14l-20.5 20.2v0.3c-6.3 27.4-22.1 52.4-44.2 70-22.4 18.2-50.9 28.2-79.6 28.2-70.3 0-127.1-57.1-127.1-127.2 0-25 7.3-48.4 19.7-68.2l0.8 0.6 4.8-6.9-0.8-0.5c23.1-31.6 60.5-52.1 102.6-52.1 28.2 0 54.8 8.9 77.2 26q2.1 1.6 4.2 3.4l-0.8 0.8 6.1 5.6 0.8-1.1c16.3 15.5 28.4 35.6 34.7 57.1l-17.1 17.2v8.7h-4.5v-8.2l17.4-17.4-0.3-0.3c-5.7-20-17.1-38.4-32.1-53.1l1.1-1.1-6.3-5.5-1.1 1q-2.4-2.1-5.3-4.2c-21.3-16.3-47.1-24.7-74-24.7-67.9 0-122.9 55-122.9 122.9 0 31.4 11.8 60.1 31.1 81.7l-1.4 1.3 5.8 6 1.4-1.3c22.1 21.9 52.6 35.3 86 35.3 28 0 54.6-9.2 76.4-26.9 21.3-16.8 36.6-40.5 42.9-66.8l24-23.7h0.5v1.8h8.2v-1.8h12.9q0 1.3 0 2.9zm-11.3-21.6l-41.9 41.8v0.3c-6.1 19.2-17.9 35.8-34.2 47.9-16.6 12.1-36.4 18.7-56.9 18.7-15.5 0-30.6-3.7-43.7-10.5h6q1.4 0 2.1-0.8 17 7.1 35.6 7.1c39.2 0 74-24.8 86.6-61.9l45.3-45.5h32.1q0.3 1.5 0.3 2.9zm7.6 14.2l-27.4 27.6h-0.2v0.3c-13.2 51.6-59.8 87.7-113 87.7-29.5 0-57.6-11.1-79.5-31.1-21.3-20-34.5-46.9-36.9-76.1l9.8-10.3h3.4c1.1 0 1.8-0.5 2.1-1.3h31.6v1.1h3.4q0 0.5 0 1 0 1.6 0 3.2h-34.5l-11 11v0.3c5.5 42.4 35.3 78.7 76.3 92.2l0.6 0.2v-5.5h0.2v-9.7h-1v2.6c-30.8-11.3-54-37.1-62.2-68.7l10.3-10.6h23.2q1.6 6.9 4.5 12.9h-11.9l-11.1 11.4v0.2c7.4 15 18.5 27.7 32.4 36.9v5.3c0 1.8 1.6 3.4 3.5 3.4h1q8.7 4.7 18.7 7.6v11.1 5.2l0.3 0.3q9.7 2.4 19.4 2.9v1.8c0 0.6 0.6 0.8 0.8 0.8h12.9q0.8 0 0.8-0.8v-1.8c15.6-1.1 30.3-5.3 43.7-11.9l1.1 1.6 6.8-4.4-0.8-1.1c24.3-14.7 43-38.4 50.6-66.9l30.8-30.8h4.5v1.6h8.1v-1.6h13.2q0 0.5 0 1.3 0 0.6 0 1.1zm-140.9 163.8c-91.1 0-165-74-165-164.9 0-91.1 73.9-165.1 165-165.1 78.8 0 144.9 55.6 161.2 129.3h-10.8c-7.9-33.2-26.9-63.2-53.7-84.8-27.4-21.8-61.6-33.9-96.7-33.9-41.3 0-80 16-109.2 45.3-29.3 29.2-45.3 67.9-45.3 109.2 0 41.1 16 80.1 45.3 109 27.4 27.4 62.9 43.2 101.3 45.1v1.8q0 0.8 0.8 0.8h14.3c0.2 0 0.7-0.3 0.7-0.8v-1.8c70.3-3.5 130.1-54.8 143.5-124.6h10.8c-13.9 76.9-81.3 135.4-162.2 135.4zm-6.5-280.2v-1.3q3.4-0.3 6.5-0.3c25.3 0 49.5 8.2 69.8 23.2q3.2 2.6 6.3 5.3l-1 1 6 5.5 1.1-1c13.2 13.2 23.4 29.7 29 47.6l-17.2 17.2v8.7h-4.2v-8.2l17.1-17.4v-0.3c-5.5-16.8-14.7-31.5-26.6-43.7l1.1-1.3-6.1-5.5-1 1c-20-17.3-46.3-27.9-74.3-27.9q-3.1 0-6.8 0.3c-0.3-0.8-0.8-1.3-1.8-1.3h-4.3c-1 0-2.1 0.8-2.1 1.8q0 0.3 0.3 0.3l-2.6 0.5v-4.5l2.3-0.2v0.5zm-7.3 4.7q0.5 0.6 1.3 0.6h4.2c0.8 0 1.6-0.6 1.8-1.3q3.5-0.3 6.9-0.3c27.6 0 53.7 10.3 73.4 27.6l-0.7 1.1 6 5.5 0.8-0.8c11.6 11.9 20.5 26.4 26.1 42.9l-17.2 17.2v8.7h-3.9v-8.7l16.8-16.9v-0.3c-15-43.1-55.8-72.1-101.3-72.1q-3.2 0-6.9 0.3v-1.3h-8.1v2.3l-2.4 0.3v-4.2zm-0.5 5.2v0.6h8.1v-1.6q3.5 0 6.6 0c45 0 85.3 28.4 100.3 70.8l-16.8 16.9v8.9h-4.2v-8.9l16.6-16.6v-0.3c-7.1-19.5-20-36.1-36.9-47.9-17.4-12.4-37.7-19-59-19q-3.1 0-6.8 0.3c-0.3-0.8-0.8-1.3-1.9-1.3h-4.2c-1 0-1.8 0.8-1.8 2.1q0 0 0 0.3l-2.7 0.2v-4.2zm0.6 5.3q0.5 0.5 1.5 0.5h4.3c0.8 0 1.5-0.5 1.8-1.6q3.4 0 6.9 0c21 0 41 6.3 58.1 18.4 16.9 11.9 29.3 28.2 36.4 47.2l-16.3 16.6v9.2h-4.8v-8.7l16.6-16.9v-0.2c-7.1-17.9-19.2-33.2-35-44.3-16.3-11.3-35.3-17.3-55-17.3q-3.5 0-6.9 0.2v-1.3h-8.2v2.4l-2.3 0.2v-4.2zm-0.6 5.6v0.5h8.2v-1.6q3.4-0.3 6.6-0.3c19.7 0 38.4 5.8 54.5 17.2 15.8 10.8 27.6 25.8 34.5 43.4l-16.6 16.3v9.2h-4.5v-8.6l16.6-16.6v-0.6c-4.2-10-10-18.9-17.1-26.6l1.3-1-6-5.5-1.1 0.8c-16.3-15.1-38.2-23.7-61.6-23.7q-3.4 0-6.9 0.2l-10.5 1.3v-4.2zm-3.4-16.6c-47.4 7.9-84.5 44.5-92.4 91.9l-0.3 0.3 11.6 11.3h33.7q0 1.3 0 2.6h-3.7v1.6h-31.8c-0.3-0.8-1.1-1.3-1.9-1.3h-3.2l-9.4-9.5c6-51.6 46-92.9 97.4-101.1zm-75 97.4h23.9v1.4h4.5q-0.3 1.8-0.5 3.6h-33.7l-10.6-10.7c8.2-46.7 44.8-83 91.4-90.6v4.2c-20.8 3.7-39.8 13.2-55 27.6-15.6 14.5-26.1 32.9-31.1 53.2v0.3zm23.7-2.4v1.3h-23.2l-10.5-10.2c5-20 15.5-38.2 30.5-52.7 15.3-14.2 34-23.4 54.5-27.1v4.2c-16.8 3.2-32.9 10.5-46 21.3q-1.1-0.8-2.2-0.8c-1.8 0-3.4 1.6-3.4 3.5q0 0.7 0.6 1.5c-12.9 12.1-22.4 27.2-28 44v0.3l11.1 11h23.2q-0.6 1.9-1.1 3.7zm4 22.9h-4v1.3h-24.7l-11.1 11.4v0.2c6.9 37.4 33.7 68.5 69.8 81.4v4.2c-40-13.4-69.5-49-74.8-90.8l10.3-10.3h34.2q0 1.3 0.3 2.6zm-20.3-27.6l-10.3-10.3c5.3-16.6 14.8-31.3 27.7-43.2q0.8 0.8 2.1 0.8c1.6 0 3.1-1.6 3.1-3.1q0-1.1-0.5-1.9c13.2-10.8 28.7-17.9 45.3-21.1v4.3c-31.3 6.3-57.7 27.3-70.6 57.1v0.3l11.1 11h8.4v1.6h8.2v-1.6h1q-1.3 2.9-2.3 6.1zm16.3-8.5v1.4h-8.2l-10.2-10.3c12.6-29 38.4-50 69.5-55.8v4.2c-25 5-46.9 20.5-60.1 42.4l-0.2 0.2 11.3 11.4h11.8q-2.3 3.7-4.4 7.9h-1.3v-1.4zm52.1-52.6v-7.1l10.8-1.3q3.1-0.3 6.6-0.3c23.1 0 44.7 8.7 61 23.4l-1 1.4 6 5.5 0.8-1.1q10.3 11.5 16.6 26.1l-16.6 16.6v8.9h-1.5c-4.5-31.8-32.2-56.3-65.3-56.3-22.9 0-43 11.6-54.8 29.2h-12.1l-10.5-10.3c13.1-21.5 34.4-36.6 58.9-41.6v6.9c-1.5 0-2.9 1.6-2.9 3.1 0 2.2 1.6 3.5 3.5 3.5 1.8 0 3.4-1.3 3.4-3.5 0-1.5-1.3-3.1-2.9-3.1zm17.4 18.9c33.9 0 61.8 27.4 62.6 61.1h-62.6v-32.4h-3.2v67.2h3.2v-31.3h62.6c-0.8 33.7-28.7 61-62.6 61-34.8 0-63-28.1-63-62.9 0-34.5 28.2-62.7 63-62.7zm-14 127.2v4.5c0 0.3 0.3 0.8 0.8 0.8h5.8v20.5c-9.5-0.8-18.4-2.9-27.1-6.6q0.5-0.7 0.5-2.1v-8.1h5.5c0.6 0 0.8-0.6 0.8-0.8v-5.3q0-0.8-0.8-0.8h-12.9c-0.2 0-0.8 0.3-0.8 0.8v1.6h-4.7c-1.8 0-3.4 1.6-3.4 3.4v2.9c-13.5-8.9-24.3-21.3-31.1-35.8l10.3-10.3h11.8c8.7 17.9 25.3 31.1 45.3 35.3zm-35.3 7.9c0-1.3 1.1-2.6 2.4-2.6h9.5c1.3 0 2.6 1.3 2.6 2.6v9.2c0 1.6-1.3 2.7-2.6 2.7h-9.5c-1.3 0-2.4-1.1-2.4-2.7zm201.2-81.3v-1.1h-8.2v1.1h-8.9l-38.2 37.9v0.3c-6.1 20.2-18.7 38.7-35.8 51.6-15.8 11.8-34.2 18.7-53.7 20v-0.8q0-0.8-0.8-0.8h-12.7q-0.7 0-0.7 0.8v0.8q-9.9-0.4-19-3.2v-4.2c8.4 2.4 17.1 3.4 26.1 3.4 21 0 40.8-6.6 57.6-18.9 16.3-12.1 28.5-29 34.5-48.2l41.4-41.6h31q0.3 1.6 0.3 2.9zm-8.2 5.5v1.3h-5l-31 31.1-0.3 0.3c-7.6 28.4-26.1 51.8-50 66.3l-0.8-1-6.9 4.2 0.6 0.8c-13.5 6.8-28 10.7-43.2 11.8v-0.8q0-0.8-0.8-0.8h-12.9c-0.3 0-0.8 0.3-0.8 0.8v0.8q-9.5-0.5-18.7-2.9v-4.2q12.6 3.2 26.1 3.2c17.1 0 33.4-4 48.1-11.4l0.8 1.1 7.1-4.5-0.5-0.8q5-2.9 9.8-6.6c18.1-13.9 31.6-33.7 37.9-55.5l33.7-34h27.9q0 1.1 0.3 2.1h-13.2v-1.3zm-242.5 29.2c8.2 32.2 31.8 58.5 63.2 70.1v4.4c-35.6-12.6-61.9-43.1-68.7-80.3l10.2-10.2h24.5v1.3h4.5q0.3 1.6 0.5 3.1h-23.2l-11.3 11.4zm34.8-102.2c0 1.3-1.1 2.4-2.4 2.4-1.3 0-2.4-1.1-2.4-2.4 0-1.3 1.1-2.4 2.4-2.4 1.3 0 2.4 1.1 2.4 2.4z"/>
			</g>
			<g id="&lt;Group&gt;">
				<path id="&lt;Compound Path&gt;" class="s0" d="m424.8 127c-107.9 0-195.6 87.7-195.6 195.6 0 107.7 87.7 195.4 195.6 195.4 107.7 0 195.4-87.7 195.4-195.4 0-107.9-87.7-195.6-195.4-195.6zm0 389.4c-106.9 0-194-86.9-194-193.8 0-106.9 87.1-194 194-194 106.9 0 193.8 87.1 193.8 194 0 106.9-86.9 193.8-193.8 193.8z"/>
			</g>
			<g id="&lt;Group&gt;">
				<path id="&lt;Compound Path&gt;" class="s0" d="m377.2 149.4c-0.5-2.7 1-5 3.7-5.5 1.3-0.6 2.3-0.3 3.4 0.2l-0.3 0.5q-1.5-0.7-3.1-0.2c-2.1 0.5-3.4 2.6-2.9 5 0.5 2.1 2.6 3.4 5 2.9q1.6-0.5 2.4-1.9l0.5 0.3c-0.5 1.1-1.6 1.8-2.9 2.1-2.7 0.8-5-0.8-5.8-3.4z"/>
				<path id="&lt;Compound Path&gt;" class="s0" d="m396.7 149.9l-2.7-2.6q-0.5 0.2-0.7 0.2l-2.7 0.6 0.5 2.9h-0.7l-1.6-9 3.1-0.5c2.4-0.5 4 0.2 4.2 2.4 0.3 1.3-0.2 2.6-1.5 3.1l2.9 2.6zm-3.7-2.9c1.8-0.2 2.9-1.3 2.6-2.8-0.3-1.6-1.6-2.4-3.4-2.2l-2.6 0.6 0.7 5z"/>
				<path id="&lt;Compound Path&gt;" class="s0" d="m404 145.7l0.6 3.2h-0.8l-0.3-3.2-4.5-5.5h0.8l4 5 2.6-5.8h0.8z"/>
				<path id="&lt;Compound Path&gt;" class="s0" d="m418.3 141.5c0.2 2.1-1.1 3.4-3.5 3.4l-2.6 0.3 0.3 2.9h-0.8l-0.5-9.3h3.4c2.1-0.2 3.7 0.8 3.7 2.7zm-0.6 0.2c-0.2-1.5-1.3-2.6-3.1-2.3h-2.7l0.3 5h2.6c1.9-0.3 2.9-1.1 2.9-2.7z"/>
				<path id="&lt;Compound Path&gt;" class="s0" d="m424.3 139.1h-3.1v-0.8h7.3v0.8h-3.4v8.4h-0.8z"/>
				<path id="&lt;Compound Path&gt;" class="s0" d="m431.4 143.1c0.3-2.7 2.4-4.5 5-4.3 2.9 0 4.8 2.2 4.5 4.8 0 2.9-2.4 4.7-5 4.5-2.6-0.3-4.7-2.4-4.5-5zm9 0.5c0-2.4-1.6-4.2-4-4.2-2.3-0.3-4.2 1.3-4.4 3.7 0 2.3 1.5 4.2 3.9 4.4 2.4 0 4.2-1.5 4.5-3.9z"/>
				<path id="&lt;Compound Path&gt;" class="s0" d="m453.8 140.7l-1.3 9.2-0.5-0.3-5.3-8.6-1.1 7.9h-0.5l1.1-9.3h0.5l5.3 9 1-7.9z"/>
				<path id="&lt;Compound Path&gt;" class="s0" d="m459.3 141.7h0.8l-1.8 9.3-0.8-0.3z"/>
				<path id="&lt;Compound Path&gt;" class="s0" d="m463.8 147.3c0.5-2.7 2.9-4 5.5-3.4 1.4 0.2 2.4 1 2.9 2.1l-0.5 0.2q-0.8-1.3-2.4-1.8c-2.3-0.5-4.4 0.8-5 3.1-0.5 2.1 0.8 4.3 3.2 4.8q1.6 0.5 2.9-0.3l0.3 0.5c-0.8 0.6-2.1 0.8-3.5 0.6-2.6-0.8-4.2-3.2-3.4-5.8z"/>
				<path id="&lt;Compound Path&gt;" class="s0" d="m480.7 152c0.2-0.5 0.8-0.8 1-0.5 0.5 0 0.8 0.5 0.5 1 0 0.6-0.5 0.6-1 0.6-0.3-0.3-0.5-0.6-0.5-1.1z"/>
				<path id="&lt;Compound Path&gt;" class="s0" d="m495.7 153.3l-3.2-1.3 0.3-0.5 6.8 2.9-0.2 0.5-3.2-1.3-3.4 7.9-0.5-0.3z"/>
				<path id="&lt;Compound Path&gt;" class="s0" d="m500.4 159.6c1.3-2.3 4-3.1 6.3-1.8 2.7 1.1 3.5 3.7 2.4 6.1-1.3 2.6-3.9 3.4-6.3 2.1-2.7-1.1-3.4-4-2.4-6.4zm7.9 4c1.1-2.1 0.3-4.2-1.8-5.3-2.1-1-4.5-0.2-5.6 1.6-1 2.1 0 4.5 2.1 5.5 2.2 1.1 4.3 0.3 5.3-1.8z"/>
				<path id="&lt;Compound Path&gt;" class="s0" d="m522 166.2l-4.7 7.9-0.6-0.2-1.3-10.3-4.2 6.8-0.5-0.2 4.7-7.9 0.5 0.2 1.4 10.1 3.9-6.9z"/>
				<path id="&lt;Compound Path&gt;" class="s0" d="m526.7 169.4l0.6 0.3-5 7.6-0.6-0.3z"/>
				<path id="&lt;Compound Path&gt;" class="s0" d="m528.6 176c1.6-2.1 4.5-2.4 6.6-0.8 1 0.8 1.8 1.8 1.8 2.9l-0.5 0.2q-0.3-1.8-1.6-2.6c-1.8-1.3-4.5-1-5.8 0.8-1.3 1.8-1 4.2 0.8 5.8q1.3 0.8 2.9 0.8l0.3 0.5c-1.4 0.3-2.4-0.3-3.5-1-2.1-1.6-2.6-4.3-1-6.6z"/>
				<path id="&lt;Compound Path&gt;" class="s0" d="m547 184.9l-6 6.9-0.6-0.3 5.8-6.6-1.8-1.6 0.5-0.2z"/>
				<path id="&lt;Compound Path&gt;" class="s0" d="m547.3 191.5c2.1-2.1 4.5-2.4 6-0.8 1.4 1.3 1.4 3.7-0.8 5.8-2.1 2.1-4.2 2.4-5.7 0.8-1.6-1.6-1.4-3.7 0.5-5.8zm4.7 4.5c1.9-1.9 2.1-3.7 0.8-5-1.3-1.1-3.2-0.8-5 1-1.8 1.9-1.8 3.7-0.8 4.8 1.3 1.3 3.2 1 5-0.8z"/>
				<path id="&lt;Compound Path&gt;" class="s0" d="m555.2 199.1c2.1-1.8 4.5-1.8 5.8-0.2 1.6 1.6 1 3.7-1.1 5.8-2.1 1.8-4.5 1.8-5.8 0.2-1.3-1.5-1-3.6 1.1-5.8zm4.5 5c1.8-1.8 2.1-3.6 1-5-1.3-1.3-3.2-1-5 0.6-2.1 1.8-2.4 3.7-1 5 1 1.3 2.8 1 5-0.6z"/>
				<path id="&lt;Compound Path&gt;" class="s0" d="m570.7 210.5l0.5 0.5-11.3 0.8-0.2-0.5zm-6.6-4.5c1-1.1 2.3-0.8 3.1 0 0.8 1 0.6 2.3-0.8 3.1-1 1.1-2.3 0.8-3.1 0q-1.2-1.5 0.8-3.1zm0 7.1c1-1.1 2.3-1.1 3.1 0 0.8 0.8 0.6 2.1-0.8 3.1-1 0.8-2.3 0.8-3.1 0-0.8-1-0.5-2.3 0.8-3.1zm2.1-4.2c1-0.8 1.3-1.9 0.5-2.7-0.5-0.5-1.3-0.7-2.4 0-1 0.8-1.3 1.9-0.8 2.7 0.6 0.8 1.6 0.8 2.7 0zm0 6.8q1.6-1.2 0.8-2.3c-0.8-0.8-1.6-0.8-2.7 0-1 0.7-1.3 1.8-0.8 2.6 0.6 0.5 1.6 0.5 2.7-0.3z"/>
				<path id="&lt;Compound Path&gt;" class="s0" d="m575.5 229.2l-2.9-4.5-2.7 0.2-0.5-0.5 10-1.3 0.5 0.5-5.5 8.5-0.5-0.6zm0.5-0.5l3.2-5-5.8 0.8z"/>
				<path id="&lt;Compound Path&gt;" class="s0" d="m584.1 230.7l0.6 0.8-7.7 4 2.7 4.7-0.6 0.3-2.9-5.3z"/>
				<path id="&lt;Compound Path&gt;" class="s0" d="m581.5 242.6h0.5c-0.2 0.8-0.2 2.1 0.3 3.1 0.8 1.6 1.8 2.2 2.9 1.6 2.4-1-1.6-5.5 1.6-7.1 1-0.5 2.6-0.2 3.4 1.9 0.5 1 0.8 2.1 0.5 2.9h-0.5c0-0.8 0-1.9-0.5-2.7-0.8-1.6-1.9-1.8-2.7-1.6-2.6 1.4 1.4 5.8-1.5 7.2-1.1 0.7-2.7 0.2-3.7-1.9-0.6-1.3-0.8-2.6-0.3-3.4z"/>
				<path id="&lt;Compound Path&gt;" class="s0" d="m589.7 257.3l-2.1-5-2.9-0.2-0.3-0.6 10.3 0.3 0.2 0.8-6.8 7.4-0.3-0.8zm0.3-0.3l3.9-4.2-5.8-0.3z"/>
				<path id="&lt;Compound Path&gt;" class="s0" d="m593.4 261c2.3-0.8 5 0.3 5.7 2.9 0.6 1.3 0.6 2.6 0 3.7l-0.5-0.3q0.5-1.5 0-3.1c-0.8-2.1-2.9-3.4-5-2.7-2.3 0.8-3.4 3.2-2.6 5.3q0.5 1.6 1.8 2.4l-0.2 0.5c-1.1-0.5-1.9-1.6-2.1-2.6-1.1-2.7 0.2-5.3 2.9-6.1z"/>
				<path id="&lt;Compound Path&gt;" class="s0" d="m601.5 271.8l0.3 0.5-9 2.7v-0.8z"/>
				<path id="&lt;Compound Path&gt;" class="s0" d="m596.3 286l-0.6 0.3-1.3-6.3 9-2.1 1.3 6h-0.5l-1.4-5.2-3.4 0.7 1.1 4.8-0.6 0.3-1.3-4.8-3.4 0.8z"/>
				<path id="&lt;Compound Path&gt;" class="s0" d="m607 296.6l-9.2 1.3v-0.5l6.9-7.4-7.9 1.3v-0.8l8.9-1.6v0.8l-6.8 7.4 7.9-1.3z"/>
				<path id="&lt;Compound Path&gt;" class="s0" d="m599.1 303.4q-0.3 0-0.7 0l-1.9-0.3v-0.5l1.9 0.3q0.2-0.5 0.5-0.5c0.2 0 0.5 0 0.8 0.5 0 0.2-0.3 0.5-0.6 0.5z"/>
				<path id="&lt;Compound Path&gt;" class="s0" d="m608.6 314.5l-9.2 0.2v-0.5l8.7-0.5-0.3-2.1h0.8z"/>
				<path id="&lt;Compound Path&gt;" class="s0" d="m604.2 319.2c2.8 0 4.7 1.6 4.7 3.7 0 2.1-1.9 3.7-4.7 3.7-2.9 0-4.5-1.6-4.5-3.7 0-2.1 1.6-3.7 4.5-3.7zm0 6.6c2.6 0 4.2-1.1 4.2-2.9 0-1.8-1.6-2.9-4.2-2.9-2.4 0-4 1.1-4 2.9 0 1.8 1.3 2.9 4 2.9z"/>
				<path id="&lt;Compound Path&gt;" class="s0" d="m604.2 330.3c2.8 0.2 4.4 1.8 4.4 3.9-0.2 2.1-2.1 3.4-5 3.2-2.9 0-4.5-1.6-4.5-4 0.3-2.1 2.2-3.4 5.1-3.1zm-0.6 6.5c2.7 0 4.2-1 4.2-2.6 0.3-1.8-1.3-3.1-3.6-3.4-2.7 0-4.3 1-4.3 2.9-0.2 1.6 1.4 2.9 3.7 3.1z"/>
				<path id="&lt;Compound Path&gt;" class="s0" d="m600.5 346.3c1.5 0 2.3 1.1 2.1 2.4 0 1.1-1.1 1.8-2.7 1.6-1.5-0.3-2.3-1.1-2.1-2.4 0-1 1.1-1.8 2.7-1.6zm-0.6 3.5c1.4 0.2 2.1-0.3 2.4-1.4 0-0.8-0.5-1.5-1.8-1.5-1.4-0.3-2.1 0.2-2.4 1 0 1.1 0.5 1.9 1.8 1.9zm6.9-0.6v0.6l-8.2-7.4v-0.5zm-1.6-7.9q2.4 0.3 2.4 2.3c-0.3 1.1-1.3 1.9-2.9 1.6-1.3 0-2.1-1.1-2.1-2.4 0.3-1 1.3-1.8 2.6-1.5zm-0.2 3.4c1.3 0.2 2.1-0.3 2.1-1.1 0.2-1-0.5-1.8-1.9-1.8-1.3-0.3-2.1 0.2-2.1 1.3-0.2 0.8 0.6 1.6 1.9 1.6z"/>
				<path id="&lt;Compound Path&gt;" class="s0" d="m602.8 369l-8.9-2.1 0.2-0.6 9.3-4.2-7.9-1.8 0.2-0.8 9 2.1-0.3 0.5-9.2 4.2 7.9 1.9z"/>
				<path id="&lt;Compound Path&gt;" class="s0" d="m593.4 378.2l1.5-5.3-2.1-1.8 0.3-0.8 7.4 6.8-0.3 0.8-10 1.3 0.3-0.8zm0.5 0l5.8-0.7-4.2-4z"/>
				<path id="&lt;Compound Path&gt;" class="s0" d="m596.5 386.9l1.3-3.2 0.6 0.3-2.7 6.8-0.5-0.2 1.1-3.2-7.9-2.9 0.2-0.8z"/>
				<path id="&lt;Compound Path&gt;" class="s0" d="m589.4 392.4l4.7 2.1-0.2 0.5-4.8-2.1c-2.1-0.8-3.6-0.2-4.4 1.3-0.8 1.9-0.3 3.5 1.8 4.3l5 2.1-0.2 0.8-5.1-2.4c-2.3-1.1-2.8-2.9-2.1-5 1.1-2.1 2.9-2.6 5.3-1.6z"/>
				<path id="&lt;Compound Path&gt;" class="s0" d="m577.6 407.7l3.6-0.6q0.3-0.2 0.3-0.7l1.3-2.4-2.6-1.3 0.3-0.6 8.1 4.3-1.6 2.9c-1 2.1-2.6 2.9-4.4 1.8-1.4-0.5-1.9-1.8-1.6-3.2l-4 0.6zm4.8-1.1c-1.1 1.9-0.6 3.2 0.8 4 1.3 0.5 2.6 0 3.6-1.6l1.1-2.4-4.2-2.4z"/>
				<path id="&lt;Compound Path&gt;" class="s0" d="m572 417.9l-0.5-0.2 3.4-5.5 7.9 4.7-3.4 5.3-0.5-0.3 2.9-4.7-2.9-1.9-2.7 4.2-0.5-0.2 2.6-4.3-3.1-2.1z"/>
				<path id="&lt;Compound Path&gt;" class="s0" d="m576.5 426.6l-0.3 0.6-7.1-5-2.9 4.4-0.5-0.5 3.4-4.7z"/>
				<path id="&lt;Compound Path&gt;" class="s0" d="m563.3 430.1c-0.2 0-0.2-0.3-0.5-0.6l-1-1.3 0.2-0.5 1.3 1.6q0.3-0.3 0.6 0c0.2 0 0.5 0.5 0.2 0.8q-0.4 0.4-0.8 0z"/>
				<path id="&lt;Compound Path&gt;" class="s0" d="m562.6 444.5l-6.9-6 0.3-0.5 6.6 5.7 1.3-1.8 0.5 0.5z"/>
				<path id="&lt;Compound Path&gt;" class="s0" d="m556 445.1c2.1 1.8 2.3 4.2 0.8 5.8-1.6 1.5-3.7 1.3-5.8-0.8-2.1-1.9-2.4-4.2-0.8-5.8 1.3-1.6 3.7-1.3 5.8 0.8zm-4.5 4.7c1.8 1.6 3.7 1.8 4.7 0.5 1.3-1 1.1-3.1-0.8-4.7-1.8-1.9-3.6-2.1-5-0.8-1 1.3-0.8 3.2 1.1 5z"/>
				<path id="&lt;Compound Path&gt;" class="s0" d="m548.1 452.7c2.1 2.1 2.1 4.5 0.5 6.1-1.6 1.3-3.7 1-5.8-1.1-1.8-2.1-2.1-4.5-0.5-6.1 1.6-1.3 3.9-1 5.8 1.1zm-4.8 4.5c1.9 1.8 3.7 2.1 5 1 1.3-1 1.1-3.1-0.5-5-1.8-1.8-3.7-2.1-5-1-1.3 1.3-1 3.1 0.5 5z"/>
				<path id="&lt;Compound Path&gt;" class="s0" d="m534.4 461.7c1 1.3 1 2.6 0 3.4q-1.6 0.8-3.2-0.8c-0.8-1.1-0.8-2.4 0-3.2 1.1-0.8 2.4-0.5 3.2 0.6zm-2.7 2.3c0.8 1.1 1.6 1.1 2.4 0.5 0.8-0.5 0.8-1.5 0-2.3-0.8-1.1-1.8-1.3-2.6-0.8-0.5 0.5-0.5 1.6 0.2 2.6zm5.3 4.5l-0.5 0.3-0.8-11.1 0.5-0.5zm4.5-6.6q1.2 2 0 3.2c-1.1 0.7-2.4 0.5-3.2-0.6-1-1.3-1-2.6 0-3.4 0.8-0.5 2.1-0.3 3.2 0.8zm-2.9 2.4c0.8 0.8 1.8 1 2.6 0.5 0.6-0.5 0.6-1.6-0.2-2.6-0.8-0.8-1.6-1.1-2.4-0.6-0.8 0.6-0.8 1.6 0 2.7z"/>
				<path id="&lt;Compound Path&gt;" class="s0" d="m516.7 474q-1.1-1.9 1.6-3.9l3.4-2.1 5 7.6-3.1 2.1c-1.9 1.1-3.2 1.1-4-0.3-0.8-0.7-0.5-1.8 0-2.6q-1.8 0.8-2.9-0.8zm0.6-0.2c0.8 1 1.8 1 3.4 0l2.9-1.9-2.1-3.1-2.9 1.8c-1.3 1.1-1.9 2.1-1.3 3.2zm8.7 1.8l-2.2-3.2-2.6 1.9c-1.3 0.8-1.8 1.8-1 2.9q0.8 1.6 3.1 0z"/>
				<path id="&lt;Compound Path&gt;" class="s0" d="m514.6 478c1.3 2.1 0.6 5-2.1 6.3-2.3 1.3-5 0.5-6.3-1.8-1.3-2.4-0.5-5.1 2.1-6.4 2.4-1.3 5-0.5 6.3 1.9zm-7.9 4.2c1.3 1.8 3.7 2.6 5.6 1.6 2.1-1.3 2.9-3.5 1.8-5.6-1-2.1-3.4-2.9-5.5-1.5-2.1 1-2.9 3.4-1.9 5.5z"/>
				<path id="&lt;Compound Path&gt;" class="s0" d="m497 491.7l-3.7-8.5h0.5l9 4.5-3.4-7.1 0.7-0.3 3.7 8.5-0.5 0.2-8.9-4.7 3.4 7.1z"/>
				<path id="&lt;Compound Path&gt;" class="s0" d="m485.1 491.4c0.3 0.5 0 1.1-0.5 1.1-0.2 0.2-0.8 0-1-0.6 0-0.2 0.2-0.8 0.5-1 0.5 0 1 0.2 1 0.5z"/>
				<path id="&lt;Compound Path&gt;" class="s0" d="m468.8 496.4c0.5 2.6-0.8 5-3.7 5.8-1 0.3-2.3 0-3.4-0.5l0.3-0.6q1.6 0.8 3.1 0.3c2.4-0.5 3.7-2.6 3.2-4.7-0.5-2.4-2.6-3.7-5-3.2q-1.6 0.5-2.6 1.9l-0.6-0.3c0.8-1.1 1.9-1.9 2.9-2.1 2.9-0.5 5.3 0.8 5.8 3.4z"/>
				<path id="&lt;Compound Path&gt;" class="s0" d="m449.3 495.6l2.7 2.7q0.5 0 1 0l2.7-0.6-0.6-2.9 0.6-0.2 1.5 9.2-3.1 0.5c-2.4 0.3-4-0.5-4.2-2.6q-0.4-2 1.5-3.2l-2.9-2.6zm3.7 2.9c-1.8 0.2-2.6 1.6-2.3 2.9 0 1.6 1.3 2.3 3.1 2.1l2.7-0.5-0.8-4.8z"/>
				<path id="&lt;Compound Path&gt;" class="s0" d="m442 499.8l-0.3-3.1 0.5-0.3 0.6 3.2 4.2 5.8h-0.8l-4-5-2.6 5.7h-0.8z"/>
				<path id="&lt;Compound Path&gt;" class="s0" d="m427.7 503.5c-0.2-1.8 1.4-3.1 3.5-3.1l2.6-0.3v-2.9h0.5l0.6 9.2h-3.5c-2.3 0.3-3.7-1-3.7-2.9zm0.6 0q0.4 2.4 3.1 2.4h2.7l-0.3-5h-2.6c-1.9 0-2.9 1-2.9 2.6z"/>
				<path id="&lt;Compound Path&gt;" class="s0" d="m421.4 505.9l3.4 0.2v0.6l-7.3-0.3v-0.5h3.4l0.3-8.4h0.5z"/>
				<path id="&lt;Compound Path&gt;" class="s0" d="m414.6 501.7c-0.3 2.9-2.4 4.7-5 4.4-2.9-0.2-4.8-2.3-4.5-5.2 0.3-2.6 2.4-4.5 5.3-4.2 2.6 0.2 4.4 2.3 4.2 5zm-8.7-0.6c-0.3 2.2 1.3 4.3 3.7 4.3 2.3 0.2 4.2-1.4 4.5-3.7 0.2-2.4-1.6-4.2-4-4.2-2.1-0.3-4.2 1.3-4.2 3.6z"/>
				<path id="&lt;Compound Path&gt;" class="s0" d="m392.2 503.8l1.6-9.2 0.5 0.2 5 9 1.1-7.9h0.7l-1.3 8.9h-0.8l-4.7-8.9-1.3 7.9z"/>
				<path id="&lt;Compound Path&gt;" class="s0" d="m386.7 502.7l-0.8-0.2 2.1-9h0.5z"/>
				<path id="&lt;Compound Path&gt;" class="s0" d="m382.5 496.9c-0.8 2.7-3.2 4-5.8 3.5-1.4-0.6-2.4-1.1-2.9-2.1l0.5-0.3q0.8 1.3 2.4 1.6c2.3 0.8 4.4-0.6 5-2.7 0.8-2.3-0.6-4.4-2.9-5q-1.6-0.5-2.9 0.3l-0.3-0.5c0.8-0.6 2.1-0.8 3.4-0.6 2.7 0.8 4.2 3.2 3.5 5.8z"/>
				<path id="&lt;Compound Path&gt;" class="s0" d="m365.3 491.9c0 0.6-0.5 0.6-1 0.6-0.3-0.3-0.5-0.6-0.5-1.1 0.2-0.5 0.8-0.8 1-0.5 0.5 0.2 0.8 0.5 0.5 1z"/>
				<path id="&lt;Compound Path&gt;" class="s0" d="m350.6 490.4l3.2 1.3-0.3 0.5-6.9-2.9 0.3-0.5 3.2 1.3 3.4-7.9 0.5 0.3z"/>
				<path id="&lt;Compound Path&gt;" class="s0" d="m345.9 483.8c-1.1 2.3-4 3.4-6.4 2.1-2.3-1.3-3.4-4-2.1-6.3 1.3-2.4 4-3.5 6.4-2.2 2.6 1.4 3.4 4 2.1 6.4zm-7.9-4c-1.1 2.1-0.3 4.5 1.8 5.5 2.1 1.1 4.5 0.3 5.5-1.8 1.1-2.1 0.3-4.5-1.8-5.5-2.1-1.1-4.2-0.3-5.5 1.8z"/>
				<path id="&lt;Compound Path&gt;" class="s0" d="m324.5 476.9l5-7.6 0.3 0.3 1.3 10 4.2-6.9 0.6 0.5-5.1 7.7-0.2-0.3-1.3-10-4.2 6.8z"/>
				<path id="&lt;Compound Path&gt;" class="s0" d="m319.8 473.8l-0.5-0.3 5.2-7.6 0.6 0.2z"/>
				<path id="&lt;Compound Path&gt;" class="s0" d="m318.2 466.9c-1.8 2.1-4.5 2.7-6.8 0.8-0.8-0.8-1.6-1.8-1.6-2.9l0.5-0.3q0.3 1.9 1.6 2.7c1.8 1.6 4.2 1.3 5.8-0.5 1.3-1.9 1-4.5-0.8-5.8q-1.3-1.1-2.9-0.8l-0.3-0.8c1.4 0 2.4 0.2 3.5 1 2.1 1.6 2.6 4.5 1 6.6z"/>
				<path id="&lt;Compound Path&gt;" class="s0" d="m299.8 457.7l6.3-6.6 0.5 0.3-5.8 6.3 1.6 1.6-0.5 0.5z"/>
				<path id="&lt;Compound Path&gt;" class="s0" d="m299.5 451.1c-1.8 2.1-4.2 2.4-5.8 0.8-1.6-1.6-1.3-3.7 0.8-5.8 2.1-2.1 4.5-2.4 5.8-0.8 1.6 1.6 1.3 4-0.8 5.8zm-4.5-4.5c-1.8 1.9-2.1 3.7-0.7 4.8 1 1.3 3.1 1 5-0.5 1.5-1.9 1.8-3.7 0.7-5-1.3-1.4-3.1-1.1-5 0.7z"/>
				<path id="&lt;Compound Path&gt;" class="s0" d="m291.9 443.2c-2.1 2.1-4.5 2.1-5.8 0.5-1.3-1.5-1.1-3.9 1-5.7 2.4-1.9 4.5-2.2 6.1-0.6 1.3 1.6 1.1 4-1.3 5.8zm-4.2-4.7c-1.9 1.6-2.4 3.4-1.1 4.7 1.1 1.3 2.9 1.3 5-0.5 1.9-1.6 2.1-3.4 1.1-4.7-1.1-1.4-3.2-1.4-5 0.5z"/>
				<path id="&lt;Compound Path&gt;" class="s0" d="m276.6 431.6l-0.3-0.2 11.1-0.6 0.3 0.3zm6.6 4.7c-1.1 0.8-2.4 0.8-3.2-0.2-0.8-0.8-0.5-2.1 0.8-3.2 1-0.8 2.4-0.8 3.1 0.3q1.2 1.6-0.7 3.1zm0.2-7.1c-1.3 1.1-2.6 0.8-3.4 0-0.5-1-0.3-2.3 0.8-3.1 1.3-1.1 2.6-0.8 3.4 0 0.5 1 0.3 2.3-0.8 3.1zm-2.4 4.3c-1 0.7-1.3 1.8-0.7 2.3 0.5 0.8 1.5 0.8 2.6 0q1.6-1.2 0.8-2.3c-0.5-0.8-1.6-0.8-2.7 0zm0-7.2c-0.7 0.8-1 1.9-0.5 2.7 0.5 0.5 1.6 0.8 2.7 0 0.7-0.8 1-1.9 0.5-2.7-0.5-0.5-1.6-0.7-2.7 0z"/>
				<path id="&lt;Compound Path&gt;" class="s0" d="m272.1 413.2l2.9 4.5 2.9-0.5 0.3 0.7-10 1.1-0.5-0.5 5.7-8.5 0.3 0.8zm-0.3 0.3l-3.4 5 5.8-0.8z"/>
				<path id="&lt;Compound Path&gt;" class="s0" d="m263.4 411.1l-0.2-0.5 7.6-4-2.6-4.7 0.5-0.3 2.9 5.3z"/>
				<path id="&lt;Compound Path&gt;" class="s0" d="m266.6 399.5h-0.8c0.5-0.8 0.5-2.1 0-3.1-0.8-1.9-1.8-2.2-2.9-1.6-2.4 1 1.3 5.5-1.6 7.1-1.3 0.5-2.6 0-3.6-2.1-0.3-0.8-0.6-1.9-0.3-2.9h0.5c-0.2 1 0 1.8 0.3 2.6 0.8 1.6 1.8 2.1 2.9 1.6 2.3-1.1-1.6-5.5 1.6-7.1 1-0.5 2.6 0 3.6 2.1 0.6 1.3 0.6 2.6 0.3 3.4z"/>
				<path id="&lt;Compound Path&gt;" class="s0" d="m258.7 384.8l1.8 5h2.9l0.3 0.8-10.3-0.6-0.2-0.8 7.1-7.3 0.2 0.8zm-0.5 0.5l-3.9 4.2 5.8 0.3z"/>
				<path id="&lt;Compound Path&gt;" class="s0" d="m255 380.8c-2.6 0.8-5-0.5-5.8-3.1-0.5-1.1-0.5-2.4 0-3.5l0.6 0.3q-0.6 1.6 0 2.9c0.7 2.4 2.8 3.4 5 2.9 2.3-0.8 3.4-2.9 2.6-5.3q-0.5-1.6-1.9-2.3l0.3-0.6c1.1 0.6 1.9 1.6 2.1 2.7 1.1 2.6-0.2 5.2-2.9 6z"/>
				<path id="&lt;Compound Path&gt;" class="s0" d="m246.9 370v-0.8l8.6-2.3 0.3 0.8z"/>
				<path id="&lt;Compound Path&gt;" class="s0" d="m252.4 355.8l0.5-0.3 1.6 6.4-9.2 1.8-1.3-6.1h0.8l1 5.3 3.7-0.8-1.1-4.7h0.6l1 4.7 3.7-0.8z"/>
				<path id="&lt;Compound Path&gt;" class="s0" d="m242.1 345l9-1.3 0.2 0.5-7.1 7.4 7.9-1.1v0.6l-8.9 1.5-0.3-0.7 7.1-7.4-7.9 1.3z"/>
				<path id="&lt;Compound Path&gt;" class="s0" d="m250 338.4c0.3-0.2 0.3 0 0.8 0l1.6 0.3 0.2 0.5-2.1-0.2q0 0.2-0.2 0.5c-0.5 0-0.8-0.3-0.8-0.5 0-0.3 0.3-0.6 0.5-0.6z"/>
				<path id="&lt;Compound Path&gt;" class="s0" d="m240.8 327.1l9.2-0.3v0.8l-8.7 0.3v2.1h-0.5z"/>
				<path id="&lt;Compound Path&gt;" class="s0" d="m245.3 322.4c-2.9 0-4.8-1.6-4.8-3.7 0-2.1 1.9-3.7 4.8-3.4 2.9 0 4.7 1.5 4.7 3.6 0 2.2-1.8 3.5-4.7 3.5zm0-6.6c-2.4 0-4 1-4 2.9 0 1.8 1.3 2.9 4 2.9 2.6 0.2 3.9-1.1 3.9-2.7 0.3-1.8-1.3-3.1-3.9-3.1z"/>
				<path id="&lt;Compound Path&gt;" class="s0" d="m245.5 311.3c-2.9 0-4.4-1.8-4.4-3.9 0.2-2.1 2.1-3.5 5-3.2 2.9 0.3 4.4 1.8 4.4 3.9-0.2 2.2-2.1 3.5-5 3.2zm0.6-6.3c-2.7-0.3-4.2 0.8-4.2 2.4-0.3 1.8 1.3 3.1 3.6 3.4 2.7 0.2 4.3-0.8 4.3-2.7 0.2-1.8-1.1-3.1-3.7-3.1z"/>
				<path id="&lt;Compound Path&gt;" class="s0" d="m244.5 300.3c-1.6-0.3-2.4-1.4-2.4-2.4 0.3-1.3 1.3-1.9 2.9-1.6 1.6 0.3 2.4 1.1 2.1 2.4-0.2 1-1.3 1.8-2.6 1.6zm0.5-3.5c-1.3-0.2-2.1 0.3-2.4 1.1 0 1 0.6 1.6 1.9 1.8 1.3 0.3 2.1-0.2 2.1-1 0.3-1.1-0.5-1.9-1.6-1.9zm-1.8-4.4v-0.6l8.1 7.7v0.5zm6.4 3.1c-1.6-0.2-2.4-1.3-2.2-2.3 0.3-1.3 1.4-2.1 2.7-1.9 1.6 0.3 2.3 1.4 2.3 2.4-0.2 1.3-1.3 1.8-2.8 1.8zm0.5-3.6c-1.3-0.3-2.1 0.2-2.1 1.3-0.3 0.8 0.5 1.6 1.6 1.8 1.3 0 2.1-0.2 2.3-1.3 0-0.8-0.5-1.6-1.8-1.8z"/>
				<path id="&lt;Compound Path&gt;" class="s0" d="m247.4 272.6l8.9 2.4v0.5l-9.4 4.2 7.9 1.9-0.3 0.7-9-2.3 0.3-0.6 9.2-3.9-7.6-2.1z"/>
				<path id="&lt;Compound Path&gt;" class="s0" d="m257.1 263.9l-1.6 5 2.2 1.9-0.3 0.8-7.4-6.9 0.3-0.5 10-1.3-0.3 0.5zm-0.5 0.3l-5.8 0.5 4.2 3.9z"/>
				<path id="&lt;Compound Path&gt;" class="s0" d="m254.2 255l-1.3 2.9h-0.5l2.6-6.9 0.5 0.3-1 2.9 7.9 3.4-0.3 0.5z"/>
				<path id="&lt;Compound Path&gt;" class="s0" d="m261.3 249.7l-4.7-2.4 0.3-0.5 4.7 2.1c2.1 1.1 3.7 0.5 4.5-1.3 0.8-1.6 0.2-3.2-1.9-4.2l-4.7-2.1 0.3-0.6 4.7 2.2c2.4 1 3.2 2.8 2.1 5-1 2.1-2.6 2.9-5.3 1.8z"/>
				<path id="&lt;Compound Path&gt;" class="s0" d="m273.7 234.4l-3.9 0.6q0 0.2-0.3 0.7l-1.3 2.1 2.6 1.6-0.2 0.6-8.2-4.5 1.6-2.9q1.9-3.2 4.7-1.6c1.1 0.5 1.6 1.8 1.3 3.2l4-0.6zm-4.8 1.1c1.1-1.9 0.8-3.2-0.5-4-1.6-0.8-2.6-0.2-3.7 1.6l-1.3 2.1 4.5 2.7z"/>
				<path id="&lt;Compound Path&gt;" class="s0" d="m279.2 224.4l0.6 0.3-3.5 5.2-7.9-5 3.5-5 0.5 0.3-2.9 4.5 2.9 2.1 2.6-4.2 0.6 0.2-2.7 4.3 3.2 2.1z"/>
				<path id="&lt;Compound Path&gt;" class="s0" d="m274.8 215.5l0.5-0.6 6.8 5.3 3.2-4.5 0.5 0.6-3.4 4.7z"/>
				<path id="&lt;Compound Path&gt;" class="s0" d="m288.2 212.3c0.3 0.3 0.3 0.3 0.5 0.5l1.1 1.6-0.3 0.3-1.3-1.6q-0.3 0.3-0.5 0c-0.3 0-0.3-0.5-0.3-0.5 0.3-0.3 0.5-0.3 0.8-0.3z"/>
				<path id="&lt;Compound Path&gt;" class="s0" d="m289.2 197.8l6.9 6.3-0.5 0.6-6.4-5.8-1.5 1.6-0.3-0.6z"/>
				<path id="&lt;Compound Path&gt;" class="s0" d="m295.8 197.6c-2.1-2.1-2.1-4.5-0.8-5.8 1.6-1.6 4-1.3 6.1 0.8 1.8 2.1 2.1 4.2 0.5 5.8-1.3 1.5-3.7 1.3-5.8-0.8zm4.8-4.5c-1.9-1.9-3.7-2.1-5-1.1-1.3 1.4-1.1 3.2 0.8 5 1.8 1.9 3.6 2.1 5 0.8 1-1 1-2.9-0.8-4.7z"/>
				<path id="&lt;Compound Path&gt;" class="s0" d="m303.7 189.9c-1.8-2.1-1.8-4.4-0.2-5.8 1.5-1.5 3.9-1 5.8 1.1 1.8 2.1 1.8 4.5 0.2 5.8-1.6 1.6-3.9 1-5.8-1.1zm5-4.2c-1.5-2.1-3.7-2.4-5-1.3-1.3 1.3-1 3.2 0.6 5 1.8 2.1 3.6 2.4 5 1.3 1.3-1.3 1-3.1-0.6-5z"/>
				<path id="&lt;Compound Path&gt;" class="s0" d="m310.6 181.2c-0.8-1.3-0.8-2.6 0.2-3.4q1.6-0.8 3.2 0.8c0.8 1.3 0.8 2.6-0.3 3.2-0.8 0.8-2.1 0.5-3.1-0.6zm2.9-2.3c-0.8-1.1-1.6-1.1-2.4-0.6-0.8 0.6-0.8 1.6 0 2.4 0.8 1.1 1.8 1.3 2.4 0.8 0.8-0.5 0.8-1.6 0-2.6zm1.8-4.2l0.5-0.6 0.6 11.4-0.6 0.2zm2.4 6.6c-0.8-1.1-0.8-2.4 0.3-3.2 0.8-0.8 2.1-0.5 3.1 0.8 0.8 1.3 0.8 2.4-0.2 3.2q-1.6 1.2-3.2-0.8zm2.9-2.1c-0.8-1.1-1.8-1.3-2.4-0.5q-1.1 0.8 0 2.3 1.2 1.6 2.4 0.8c0.8-0.5 0.8-1.6 0-2.6z"/>
				<path id="&lt;Compound Path&gt;" class="s0" d="m335.6 169.4c0.8 1.3 0.3 2.6-1.6 3.7l-3.4 2.1-5-7.9 3.4-1.9c1.6-1 3.2-1 4 0.3 0.5 1.1 0.2 1.8-0.3 2.6q1.8-0.8 2.9 1.1zm-9-1.9l1.9 3.2 2.6-1.6c1.3-0.8 1.9-1.8 1.3-2.9-0.8-1-1.8-1-3.1-0.2zm8.4 1.8c-0.8-1-1.8-1-3.4 0l-2.9 1.9 2.1 3.1 2.9-1.8c1.6-0.8 2.1-1.9 1.3-3.2z"/>
				<path id="&lt;Compound Path&gt;" class="s0" d="m337.7 165.4c-1.1-2.3-0.3-5 2.1-6.3 2.6-1.3 5.3-0.5 6.6 2.1 1 2.4 0.2 5-2.1 6.3-2.4 1.1-5.3 0.3-6.6-2.1zm7.9-3.9c-1.1-2.1-3.4-2.9-5.3-1.9-2.1 1.1-2.9 3.5-1.8 5.6 1 2.1 3.4 2.9 5.5 1.8 2.1-1.3 2.9-3.4 1.6-5.5z"/>
				<path id="&lt;Compound Path&gt;" class="s0" d="m355.6 152l3.7 8.4-0.5 0.3-9-5 3.2 7.4-0.6 0.2-3.6-8.4 0.5-0.3 8.9 5-3.1-7.3z"/>
				<path id="&lt;Compound Path&gt;" class="s0" d="m367.4 152.5c0-0.5 0.3-1 0.6-1 0.5-0.3 1 0 1 0.5 0.3 0.3 0 0.8-0.5 1.1-0.3 0-0.8-0.3-1.1-0.6z"/>
			</g>
		</g>
		<g id="&lt;Group&gt;">
			<path id="&lt;Path&gt;" class="s0" d="m719.5 598.6q0.2-0.3 0.2-0.6l-3.9-2.3q-0.5 0.5-0.8 1.3z"/>
			<path id="&lt;Path&gt;" class="s0" d="m716.6 594.4l3.9 2.3q0.3-0.2 0.6-0.5l-3.7-2.9q-0.6 0.5-0.8 1.1z"/>
			<path id="&lt;Path&gt;" class="s0" d="m713.9 599.6l4.8 0.8q0.3-0.3 0.3-0.5l-4.5-1.6q-0.3 0.5-0.6 1.3z"/>
			<path id="&lt;Path&gt;" class="s0" d="m721.8 589.6q-1.8 1.1-3.4 2.6l3.7 2.9q0.8-0.7 2.1-1.5l15.3-8.7-2.4-4.2z"/>
			<path id="&lt;Path&gt;" class="s0" d="m718.2 603q0.2-0.5 0.2-1l-4.7-1.1q0 1.1 0 2.1z"/>
		</g>
	</g>
</svg>